<?xml version="1.0" encoding="utf-8"?>
<!-- Generator: Adobe Illustrator 24.1.1, SVG Export Plug-In . SVG Version: 6.00 Build 0)  -->
<svg version="1.1" id="레이어_1" xmlns="http://www.w3.org/2000/svg" xmlns:xlink="http://www.w3.org/1999/xlink" x="0px"
	 y="0px" viewBox="0 0 80 80" style="enable-background:new 0 0 80 80;" xml:space="preserve">
<style type="text/css">
	.st0{fill:#FFFFFF;stroke:#666666;stroke-width:2;stroke-linecap:round;stroke-linejoin:round;stroke-miterlimit:10;}
	.st1{fill:none;stroke:#00872D;stroke-width:2;stroke-linejoin:round;stroke-miterlimit:10;}
	.st2{fill:#FFFFFF;stroke:#666666;stroke-width:2;stroke-linejoin:round;stroke-miterlimit:10;}
</style>
<g>
	<path class="st0" d="M49.4,37.3h-1.6c-1.4,0-2.6-1.2-2.6-2.6V22.3c0-1.4,1.2-2.6,2.6-2.6h18.3c1.4,0,2.6,1.2,2.6,2.6v12.4
		c0,1.4-1.2,2.6-2.6,2.6H54.6"/>
	<polyline class="st0" points="49.4,37.3 49.4,42.9 54.6,37.3 	"/>
</g>
<line class="st1" x1="51.5" y1="25.8" x2="63.6" y2="25.8"/>
<line class="st1" x1="51.5" y1="30.8" x2="63.6" y2="30.8"/>
<g>
	<path class="st2" d="M34.2,49.5h0.7c7.1,0,12.9,5.8,12.9,12.9"/>
	<path class="st2" d="M11,62.4c0-7.1,5.8-12.9,12.9-12.9"/>
	<path class="st2" d="M34.3,43.4v4.1c0,2.2-5.1,8.1-5.1,8.1s-4.8-5.9-4.8-8.1v-5.3"/>
	<path class="st2" d="M39,34.1c0,5.3-4.3,9.6-9.6,9.6l0,0c-5.3,0-9.6-4.3-9.6-9.6v-4.6c0-5.3,4.3-9.6,9.6-9.6l0,0
		c5.3,0,9.6,4.3,9.6,9.6V34.1z"/>
</g>
<path class="st2" d="M20.6,30.2c0,0,5.5,0,8.6-4.7c0,0,3.9,5.8,9.4,5.8"/>
</svg>
