<?xml version="1.0" encoding="utf-8"?>
<!-- Generator: Adobe Illustrator 24.1.1, SVG Export Plug-In . SVG Version: 6.00 Build 0)  -->
<svg version="1.1" id="레이어_1" xmlns="http://www.w3.org/2000/svg" xmlns:xlink="http://www.w3.org/1999/xlink" x="0px"
	 y="0px" viewBox="0 0 80 80" style="enable-background:new 0 0 80 80;" xml:space="preserve">
<style type="text/css">
	.st0{fill:#FFFFFF;stroke:#666666;stroke-width:2;stroke-linejoin:round;stroke-miterlimit:10;}
	.st1{fill:none;stroke:#00872D;stroke-width:2;stroke-linejoin:round;stroke-miterlimit:10;}
</style>
<path class="st0" d="M22.9,34.6l-0.1-0.3c2.5-2.2,5.8-3.5,9.4-3.5H62v-9.9H32.2c-7.6,0-13.8,5.8-14.5,13.1l0,0l0,0
	c0,0.5-0.1,0.9-0.1,1.4c0,0.4,0,0.8,0.1,1.2l-0.1,8.7l0.5-0.2"/>
<path class="st0" d="M22.5,34.5c-1.8,1.6-3.2,3.6-4,5.9c-0.6,1.5-0.9,3.2-0.9,4.9c0,8.1,6.5,14.6,14.6,14.6s14.6-6.5,14.6-14.6
	c0-0.4,0-0.7-0.1-1.1H62v-9.9v-3.6H32.2C28.5,30.8,25.1,32.2,22.5,34.5"/>
<line class="st0" x1="34" y1="23.7" x2="34" y2="27.3"/>
<circle class="st1" cx="31.9" cy="46.4" r="7.6"/>
</svg>
