<?xml version="1.0" encoding="utf-8"?>
<!-- Generator: Adobe Illustrator 24.1.1, SVG Export Plug-In . SVG Version: 6.00 Build 0)  -->
<svg version="1.1" id="레이어_1" xmlns="http://www.w3.org/2000/svg" xmlns:xlink="http://www.w3.org/1999/xlink" x="0px"
	 y="0px" viewBox="0 0 80 80" style="enable-background:new 0 0 80 80;" xml:space="preserve">
<style type="text/css">
	.st0{fill:#FFFFFF;stroke:#666666;stroke-width:2;stroke-linejoin:round;stroke-miterlimit:10;}
	.st1{fill:none;stroke:#00872D;stroke-width:2;stroke-linejoin:round;stroke-miterlimit:10;}
</style>
<path class="st0" d="M16.7,28.1c0,0,8.9-1.6,13.9,8.9c0,0,13.3-2,19.9,5.8c0,0-0.4-10.9,3.6-14.8l-6.5-1.9c-1.4-0.4-1.9-2.1-1.1-3.2
	l2.9-4c0.5-0.7,1.5-1,2.3-0.7l5.6,1.8c0.6,0.2,1.1,0.6,1.3,1.2c1.3,3.4,5.1,15.7,1.2,31.2c-0.9,3.5-3.8,6-7.4,6.4
	C45.8,59.4,34.8,59,25,51.2c0,0-1,6-8.3,11.5"/>
<path class="st1" d="M30.9,43.1c0,0,6.6,6.3,13.6,6.6"/>
</svg>
