<?xml version="1.0" encoding="utf-8"?>
<!-- Generator: Adobe Illustrator 24.1.1, SVG Export Plug-In . SVG Version: 6.00 Build 0)  -->
<svg version="1.1" id="레이어_1" xmlns="http://www.w3.org/2000/svg" xmlns:xlink="http://www.w3.org/1999/xlink" x="0px"
	 y="0px" viewBox="0 0 14 12" style="enable-background:new 0 0 14 12;" xml:space="preserve">
<style type="text/css">
	.st0{fill:#83C7A4;}
</style>
<g>
	<g>
		<path class="st0" d="M13.2,5.1L13.2,5.1H3.9l2.9-3C7,1.9,7,1.7,7,1.5S7,1.1,6.8,1L6.4,0.5C6.2,0.4,6,0.3,5.8,0.3S5.4,0.4,5.2,0.6
			l-5,5C0.1,5.7,0,5.9,0,6.1s0.1,0.4,0.3,0.6l5,5c0.1,0.1,0.3,0.2,0.5,0.2s0.4-0.1,0.5-0.2l0.5-0.5C6.9,11.1,7,10.9,7,10.7
			s0-0.4-0.2-0.5l-3-3h9.4c0.4,0,0.8-0.4,0.8-0.8V5.8C14,5.3,13.6,5,13.2,5.1z"/>
	</g>
</g>
</svg>
