<?xml version="1.0" encoding="utf-8"?>
<!-- Generator: Adobe Illustrator 24.1.1, SVG Export Plug-In . SVG Version: 6.00 Build 0)  -->
<svg version="1.1" id="레이어_1" xmlns="http://www.w3.org/2000/svg" xmlns:xlink="http://www.w3.org/1999/xlink" x="0px"
	 y="0px" viewBox="0 0 30 30" style="enable-background:new 0 0 30 30;" xml:space="preserve">
<style type="text/css">
	.st0{fill-rule:evenodd;clip-rule:evenodd;fill:#3E82F1;}
	.st1{fill-rule:evenodd;clip-rule:evenodd;fill:#32A753;}
	.st2{fill-rule:evenodd;clip-rule:evenodd;fill:#F9BB00;}
	.st3{fill-rule:evenodd;clip-rule:evenodd;fill:#E74133;}
</style>
<g>
	<path class="st0" d="M28.7,15.5c0-1-0.1-1.9-0.3-2.8H15.4V18h7.5c-0.3,1.7-1.3,3.2-2.8,4.2v3.5h4.5C27.2,23.3,28.7,19.7,28.7,15.5
		L28.7,15.5L28.7,15.5z"/>
	<path class="st1" d="M15.4,29.1c3.7,0,6.9-1.2,9.2-3.4l-4.5-3.5c-1.2,0.8-2.8,1.3-4.7,1.3c-3.6,0-6.7-2.4-7.8-5.7H3v3.6
		C5.3,25.9,10,29.1,15.4,29.1L15.4,29.1L15.4,29.1z"/>
	<path class="st2" d="M7.6,17.8c-0.3-0.8-0.4-1.7-0.4-2.6c0-0.9,0.2-1.8,0.4-2.6V8.9H3c-0.9,1.9-1.5,4-1.5,6.2S2,19.5,3,21.4
		L7.6,17.8L7.6,17.8L7.6,17.8z"/>
	<path class="st3" d="M15.4,6.8c2,0,3.9,0.7,5.3,2.1l4-4c-2.4-2.2-5.5-3.6-9.3-3.6C10,1.3,5.3,4.4,3,8.9l4.6,3.6
		C8.7,9.3,11.8,6.8,15.4,6.8L15.4,6.8L15.4,6.8z"/>
</g>
</svg>
