<?xml version="1.0" encoding="utf-8"?>
<!-- Generator: Adobe Illustrator 24.1.1, SVG Export Plug-In . SVG Version: 6.00 Build 0)  -->
<svg version="1.1" id="레이어_1" xmlns="http://www.w3.org/2000/svg" xmlns:xlink="http://www.w3.org/1999/xlink" x="0px"
	 y="0px" viewBox="0 0 30 30" style="enable-background:new 0 0 30 30;" xml:space="preserve">
<style type="text/css">
	.st0{fill:#381E1F;}
	.st1{fill:url(#SVGID_1_);}
	.st2{fill:url(#SVGID_2_);}
	.st3{fill:url(#SVGID_3_);}
	.st4{fill:url(#SVGID_4_);}
</style>
<g>
	<path class="st0" d="M15.1,2.4c-7.7,0-13.9,4.9-13.9,11c0,3.9,2.6,7.4,6.6,9.3c-0.3,1.1-1.1,3.9-1.2,4.5C6.4,28,6.9,28,7.2,27.8
		c0.2-0.2,3.8-2.6,5.3-3.6c0.8,0.1,1.7,0.2,2.6,0.2c7.7,0,13.9-4.9,13.9-11S22.8,2.4,15.1,2.4z"/>
	<g>
		<g>
			<g>
				<linearGradient id="SVGID_1_" gradientUnits="userSpaceOnUse" x1="4.8577" y1="14.3514" x2="10.5713" y2="14.3514">
					<stop  offset="0" style="stop-color:#E5DD4A"/>
					<stop  offset="2.374291e-02" style="stop-color:#E5DC47"/>
					<stop  offset="0.1784" style="stop-color:#E4D83C"/>
					<stop  offset="0.3958" style="stop-color:#E4D635"/>
					<stop  offset="1" style="stop-color:#E4D533"/>
				</linearGradient>
				<path class="st1" d="M9.9,11c-1,0-4.4,0-4.4,0c-0.8,0-0.8,1.4,0,1.4h1.4c0,0,0,3.9,0,4.9c0,0.7,1.5,0.7,1.5,0l0-4.9
					c0,0,0.5,0,1.4,0C10.8,12.4,10.8,11,9.9,11z"/>
			</g>
			<g>
				<g>
					<linearGradient id="SVGID_2_" gradientUnits="userSpaceOnUse" x1="9.4055" y1="14.3583" x2="15.3974" y2="14.3583">
						<stop  offset="0" style="stop-color:#E5DD4A"/>
						<stop  offset="2.374291e-02" style="stop-color:#E5DC47"/>
						<stop  offset="0.1784" style="stop-color:#E4D83C"/>
						<stop  offset="0.3958" style="stop-color:#E4D635"/>
						<stop  offset="1" style="stop-color:#E4D533"/>
					</linearGradient>
					<path class="st2" d="M13.3,11.4c-0.2-0.5-1.5-0.7-1.8,0c-0.4,0.8-1.6,4.5-2.1,5.5c-0.3,0.7,1,1.3,1.3,0.6l0.3-1l2.6,0
						c0,0-0.1,0,0.3,1c0.3,0.8,1.7,0.2,1.4-0.5C15,15.8,13.5,11.9,13.3,11.4z M11.6,15.1l0.9-2.5l0.8,2.5H11.6z"/>
				</g>
			</g>
			<g>
				<linearGradient id="SVGID_3_" gradientUnits="userSpaceOnUse" x1="15.8655" y1="14.3494" x2="19.8634" y2="14.3494">
					<stop  offset="0" style="stop-color:#E5DD4A"/>
					<stop  offset="2.374291e-02" style="stop-color:#E5DC47"/>
					<stop  offset="0.1784" style="stop-color:#E4D83C"/>
					<stop  offset="0.3958" style="stop-color:#E4D635"/>
					<stop  offset="1" style="stop-color:#E4D533"/>
				</linearGradient>
				<path class="st3" d="M19.4,16.3c-0.7,0-1.9,0-1.9,0s0-3.8,0-4.7c0-0.9-1.6-0.9-1.6,0c0,1.3,0,5.3,0,5.3s-0.1,0.8,0.6,0.8
					c0.7,0,2.2,0,2.9,0C20,17.7,20,16.3,19.4,16.3z"/>
			</g>
			<g>
				<linearGradient id="SVGID_4_" gradientUnits="userSpaceOnUse" x1="20.1994" y1="14.3651" x2="25.3198" y2="14.3651">
					<stop  offset="0" style="stop-color:#E5DD4A"/>
					<stop  offset="2.374291e-02" style="stop-color:#E5DC47"/>
					<stop  offset="0.1784" style="stop-color:#E4D83C"/>
					<stop  offset="0.3958" style="stop-color:#E4D635"/>
					<stop  offset="1" style="stop-color:#E4D533"/>
				</linearGradient>
				<path class="st4" d="M25.2,16.7l-2-2.7c0,0,1.4-1.5,1.9-2c0.3-0.3-0.7-1.3-1-1c-0.3,0.3-2.5,2.5-2.5,2.5s0-1.4,0-2.1
					c0-0.6-1.5-0.5-1.5,0c0,0.6,0,5.5,0,5.9c0,0.6,1.5,0.6,1.5,0c0-0.7,0-2,0-2l0.4-0.3l1.9,2.6C24.4,18.1,25.6,17.2,25.2,16.7z"/>
			</g>
		</g>
	</g>
</g>
</svg>
