<?xml version="1.0" encoding="utf-8"?>
<!-- Generator: Adobe Illustrator 24.1.1, SVG Export Plug-In . SVG Version: 6.00 Build 0)  -->
<svg version="1.1" id="레이어_1" xmlns="http://www.w3.org/2000/svg" xmlns:xlink="http://www.w3.org/1999/xlink" x="0px"
	 y="0px" viewBox="0 0 310 242" style="enable-background:new 0 0 310 242;" xml:space="preserve">
<style type="text/css">
	.st0{fill-rule:evenodd;clip-rule:evenodd;fill:#F3F3F3;}
</style>
<path class="st0" d="M1.6,189.8L99.7,35.3L113.2,59L34.8,181.9C34.8,181.9,6.7,187,1.6,189.8"/>
<path class="st0" d="M151,15.6l-104.9,164c0,0,18-1.7,21.4-1.1l93-144.3L151,15.6z"/>
<path class="st0" d="M190.4,1.5L80.5,176.2c0,0,86.8-3.9,131.4,3.9c0,0,90.8,13,66.5,40.6c0,0-10.1,11.3-46.2,19.2
	c0,0,65.4-3.4,75-34.4c0,0,3.9-9.6-1.7-18L190.4,1.5z"/>
</svg>
